<?xml version="1.0" encoding="utf-8"?>
<!-- Generator: Adobe Illustrator 21.0.2, SVG Export Plug-In . SVG Version: 6.00 Build 0)  -->
<svg version="1.1" id="Capa_1" xmlns="http://www.w3.org/2000/svg" xmlns:xlink="http://www.w3.org/1999/xlink" x="0px" y="0px"
	 viewBox="0 0 226.8 85" style="enable-background:new 0 0 226.8 85;" xml:space="preserve">
<style type="text/css">
	.st0{fill:#353535;}
	.st1{fill:#EA5354;}
	.st2{fill:#262626;}
</style>
<path class="st0" d="M13.6,37.1c-2.4,0-5-1.3-6-3.7c-0.1-0.2-0.2-0.3-0.3-0.5c0-0.1,0-0.1-0.1-0.2c0,0,0,0,0-0.1
	c-0.1-0.1-0.1-0.2-0.1-0.3C7.1,32.2,7,32,7,31.9c-2,0.8-4,1.5-6,2.3c0.5,2.2,1.8,4.4,3.5,6c2.4,2.2,5.6,3.5,9.1,3.5
	c7.9,0,12.5-4.9,13.5-9.7v-0.1c1-6.5-2.8-11.2-10.5-13l-4.8-1.1c-4.3-1-4.3-2.9-4.3-3.9c0-2.7,3.1-4.5,6-4.5c2.1,0,4.5,0.7,5.5,2.7
	c0.1,0.2,0.2,0.3,0.3,0.5c0.3,0.5,0.4,1.1,0.6,1.8c2-0.9,3.9-1.9,5.9-2.8c-1.2-5.3-6-8.8-12.3-8.8C7.5,4.8,1,9,1,15.9
	c0,5.4,3.3,8.9,9.5,10.3l4.7,1.1c6,1.4,5.7,4.3,5.5,5.5C20.4,34.4,18.5,37.1,13.6,37.1z"/>
<path class="st0" d="M41.5,34.8h10.7l2.5,8.8h6.8L50.6,5.3H43L32.2,43.6H39L41.5,34.8z M46.8,15.8l3.5,12.5h-7.1L46.8,15.8z"/>
<polygon class="st0" points="88.4,30 70.7,5.3 66.3,5.3 66.3,43.6 72.9,43.6 72.9,19.5 90.3,43.9 94.9,43.9 94.9,5.3 88.4,5.3 "/>
<path class="st0" d="M118.9,43.6c7.3,0,13.7-4.2,16.9-10.2l-5.6-3.3c-2.1,4.1-6.4,7-11.3,7c-7,0-12.6-5.7-12.6-12.6V23
	c0-7,5.7-12.6,12.6-12.6c4.9,0,9.1,2.8,11.2,6.8l5.6-3.3c-3.2-6-9.6-10.1-16.9-10.1c-10.6,0-19.2,8.6-19.2,19.2v1.4
	C99.8,35,108.4,43.6,118.9,43.6z"/>
<polygon class="st0" points="147.2,20.6 147.2,4.6 140.7,4.6 140.7,43.3 147.2,43.3 147.2,27.1 160.9,27.1 160.9,20.6 "/>
<rect x="167.4" y="10.8" class="st1" width="0" height="26.1"/>
<path class="st1" d="M171.5,36.9v6.5h20c-4.8-0.6-9.1-3-12.1-6.5H171.5z"/>
<path class="st1" d="M197.7,4.3c4.3,0.9,8,3.3,10.7,6.5h9v26.1h-9.1c-3,3.5-7.3,5.9-12.1,6.5h27.7V4.3H197.7z"/>
<polygon class="st1" points="160.9,43.3 160.9,27.1 160.9,27.1 160.9,43.4 167.4,43.4 167.4,43.3 "/>
<path class="st1" d="M179.3,10.8c2.7-3.2,6.4-5.6,10.7-6.5h-18.6v6.5H179.3z"/>
<g>
	<polygon class="st1" points="160.9,4.6 167.4,4.6 167.4,4.3 160.9,4.3 160.9,20.6 160.9,20.6 	"/>
	<polygon class="st1" points="160.9,43.3 167.4,43.3 167.4,36.9 167.4,36.9 167.4,10.8 167.4,10.8 167.4,4.6 160.9,4.6 160.9,20.6 
		160.9,20.6 160.9,27.1 160.9,27.1 	"/>
</g>
<rect x="167.4" y="4.6" class="st1" width="0" height="6.2"/>
<rect x="167.4" y="36.9" class="st1" width="0" height="6.4"/>
<g>
	<path class="st2" d="M4.3,55.9v-2h13.9v2.8h-2v-0.8H7.1V63h6.1v2H7.1v8.1H5V55.9H4.3z"/>
	<path class="st2" d="M44.5,63.5c0,5.6-4.5,10.1-10.1,10.1s-10.1-4.5-10.1-10.1s4.5-10.1,10.1-10.1S44.5,57.9,44.5,63.5z M34.4,71.6
		c4.5,0,8.1-3.6,8.1-8.1s-3.6-8.1-8.1-8.1s-8.1,3.6-8.1,8.1S29.9,71.6,34.4,71.6z"/>
	<path class="st2" d="M66.7,53.9v2.8h-2v-0.8h-5.1v17.2h-2V55.9h-5.1v0.8h-2v-2.8H66.7z"/>
	<path class="st2" d="M93,63.5c0,5.6-4.5,10.1-10.1,10.1s-10.1-4.5-10.1-10.1s4.5-10.1,10.1-10.1S93,57.9,93,63.5z M82.9,71.6
		c4.5,0,8.1-3.6,8.1-8.1s-3.6-8.1-8.1-8.1s-8.1,3.6-8.1,8.1S78.4,71.6,82.9,71.6z"/>
	<path class="st2" d="M113.2,64h5.1v9.1h-2v-1.5c-1.6,1.2-3.5,2-5.3,2c-5.1,0-9.9-4.3-9.9-10.1c0-5.6,4.5-10.1,10.1-10.1
		c2.2,0,4.2,0.7,5.9,1.9l0.2,0.1v1.8h-2v-0.7c-1.2-0.7-2.6-1.1-4.1-1.1c-4.5,0-8.1,3.6-8.1,8.1s3.6,8.1,8.1,8.1
		c1.8,0,3.7-0.8,5.1-2.1V66h-3L113.2,64L113.2,64z"/>
	<path class="st2" d="M139.6,70.6c0.3,0.5,0.4,0.5,0.7,0.5h1.2v2h-1.2c-1,0-1.6-0.3-2.4-1.5l-3-4.6c-1.2-2-1.5-2.1-4.1-2.1h-1.5V73
		h-2V55.9h-0.7v-2h7.5c4.3,0,6.5,2.8,6.5,5.6c0,2.5-1.7,4.9-5.1,5.5c0.8,0.5,1.4,1.3,2.1,2.4L139.6,70.6z M138.4,59.4
		c0-1.7-1.3-3.5-4.4-3.5h-4.7V63h4.7C137.1,63,138.4,61.2,138.4,59.4z"/>
	<path class="st2" d="M156.7,53.4h1.4l7.3,19.4l-1.9,0.7l-1.9-4.9h-8.5l-1.7,4.6h-2v-2h0.5L156.7,53.4z M153.9,66.5h7l-3.5-9.3
		L153.9,66.5z"/>
	<path class="st2" d="M173.1,55.9v-2H187v2.8h-2v-0.8h-9.1V63h6.1v2h-6.1v8.1h-2V55.9H173.1z"/>
	<path class="st2" d="M196,73.1V53.9h2v19.3L196,73.1L196,73.1z"/>
	<path class="st2" d="M214.3,53.4h1.4l7.3,19.4l-1.9,0.7l-1.9-4.9h-8.5l-1.7,4.6h-2v-2h0.5L214.3,53.4z M211.5,66.5h7l-3.5-9.3
		L211.5,66.5z"/>
</g>
<path class="st1" d="M194.1,40.5c-9.3,0-16.9-7.6-16.9-16.9s7.6-16.9,16.9-16.9c9.3,0,16.9,7.6,16.9,16.9
	C211,33,203.4,40.5,194.1,40.5z M194.1,12.7c-6,0-10.9,4.9-10.9,10.9s4.9,10.9,10.9,10.9S205,29.6,205,23.6S200.1,12.7,194.1,12.7z"
	/>
<path class="st1" d="M194.3,32.5c-4.8,0-8.7-3.9-8.7-8.7s3.9-8.7,8.7-8.7s8.7,3.9,8.7,8.7S199,32.5,194.3,32.5z M194.3,18.7
	c-2.8,0-5.2,2.3-5.2,5.2c0,2.8,2.3,5.2,5.2,5.2s5.2-2.3,5.2-5.2C199.4,21,197.1,18.7,194.3,18.7z"/>
</svg>
